# Blender v2.78 (sub 0) OBJ File: ''

# www.blender.org
o Cube_Cube.001


v -1.000000 -1.000000 1.000000

v -1.000000 1.000000 1.000000

v -1.000000 1.000000 -1.000000

v -1.000000 -1.000000 -1.000000

v 1.000000 1.000000 -1.000000

v 1.000000 -1.000000 -1.000000

v 1.000000 1.000000 1.000000

v 1.000000 -1.000000 1.000000


vt 0.0001 0.0001

vt 0.9999 0.9999

vt 0.0001 0.9999

vt 0.0001 0.0001

vt 0.9999 0.9999

vt 0.0001 0.9999

vt 0.9999 0.9999

vt 0.0001 0.0001

vt 0.9999 0.0001

vt 0.9999 0.9999

vt 0.0001 0.0001

vt 0.9999 0.0001

vt 0.0001 0.0001

vt 0.0001 0.9999

vt 0.9999 0.0001

vt 0.9999 0.0001

vt 0.9999 0.0001

vt 0.0001 0.9999

vt 0.0001 0.9999

vt 0.9999 0.9999


vn -1.0000 -0.0000 0.0000

vn 0.0000 0.0000 -1.0000

vn 1.0000 -0.0000 0.0000

vn 0.0000 -0.0000 1.0000
vn 0.0000 -1.0000 -0.0000

vn 0.0000 1.0000 0.0000


s 1


f 2/1/1 4/2/1 1/3/1

f 3/4/2 6/5/2 4/6/2

f 5/7/3 8/8/3 6/9/3

f 7/10/4 1/11/4 8/12/4

f 6/9/5 1/3/5 4/13/5

f 3/14/6 7/15/6 5/7/6

f 2/1/1 3/16/1 4/2/1

f 3/4/2 5/17/2 6/5/2

f 5/7/3 7/18/3 8/8/3

f 7/10/4 2/19/4 1/11/4

f 6/9/5 8/20/5 1/3/5

f 3/14/6 2/1/6 7/15/6
